<?xml version="1.0" encoding="UTF-8" standalone="no"?>
<!-- Created with Inkscape (http://www.inkscape.org/) -->

<svg
   xmlns:dc="http://purl.org/dc/elements/1.1/"
   xmlns:cc="http://creativecommons.org/ns#"
   xmlns:rdf="http://www.w3.org/1999/02/22-rdf-syntax-ns#"
   xmlns:svg="http://www.w3.org/2000/svg"
   xmlns="http://www.w3.org/2000/svg"
   xmlns:sodipodi="http://sodipodi.sourceforge.net/DTD/sodipodi-0.dtd"
   xmlns:inkscape="http://www.inkscape.org/namespaces/inkscape"
   width="135.73125mm"
   height="35.548527mm"
   viewBox="0 0 135.73125 35.548526"
   version="1.1"
   id="svg4515"
   inkscape:version="0.92.1 r15371"
   sodipodi:docname="windows.svg">
  <defs
     id="defs4509">
    <inkscape:perspective
       sodipodi:type="inkscape:persp3d"
       inkscape:vp_x="0 : 148.49999 : 1"
       inkscape:vp_y="0 : 999.99996 : 0"
       inkscape:vp_z="210.00001 : 148.49999 : 1"
       inkscape:persp3d-origin="105 : 98.999996 : 1"
       id="perspective5098" />
  </defs>
  <sodipodi:namedview
     id="base"
     pagecolor="#ffffff"
     bordercolor="#666666"
     borderopacity="1.0"
     inkscape:pageopacity="0.0"
     inkscape:pageshadow="2"
     inkscape:zoom="0.74511719"
     inkscape:cx="178.58447"
     inkscape:cy="-63.730237"
     inkscape:document-units="mm"
     inkscape:current-layer="layer1"
     showgrid="false"
     inkscape:pagecheckerboard="true"
     inkscape:window-width="1280"
     inkscape:window-height="738"
     inkscape:window-x="-8"
     inkscape:window-y="-8"
     inkscape:window-maximized="1" />
  <metadata
     id="metadata4512">
    <rdf:RDF>
      <cc:Work
         rdf:about="">
        <dc:format>image/svg+xml</dc:format>
        <dc:type
           rdf:resource="http://purl.org/dc/dcmitype/StillImage" />
        <dc:title />
      </cc:Work>
    </rdf:RDF>
  </metadata>
  <g
     inkscape:label="Layer 1"
     inkscape:groupmode="layer"
     id="layer1"
     transform="translate(-41.497202,-61.321965)">
    <g
       transform="matrix(0.08793221,0,0,0.08793221,64.757464,60.195357)"
       id="g2188"
       style="fill:#ffffff">
      <path
         inkscape:connector-curvature="0"
         d="m 341.25,12.8125 c -11.02203,-0.02539 -19.49745,1.777051 -23,5.65625 -5.55688,6.154435 -18.3467,52.050021 -34.3125,122.1875 -11.51895,50.47049 -3.52716,79.90391 4.34375,95.65625 10.06277,20.13898 17.90523,32.24808 2,72.4375 -11.51919,29.10677 -23.27205,34.67754 -34.1875,36.0625 -26.30578,-6.32575 -46.15728,-6.55239 -48.75,0.5625 -3.54667,9.73271 26.46865,29.46061 67,44.0625 40.53134,14.60188 76.32833,18.57646 79.875,8.84375 2.6012,-7.13815 -12.89899,-19.66187 -37.3125,-31.59375 -10.71743,-11.04279 -20.33097,-18.73413 -11.84375,-52.9375 16.60347,-66.91167 41.93037,-43.9146 71.78125,-85.5 25.32136,-35.27531 32.02618,-62.3403 46.6875,-103.6875 C 439.06536,80.753941 445.88577,60.473586 443.875,56.46875 430.3319,29.49505 374.31609,12.888669 341.25,12.8125 Z M 343.53125,22 c 12.31878,0.108004 27.97868,2.796486 40.6875,7.34375 27.23671,9.745396 51.81736,23.366255 50.375,31.53125 -3.64538,20.635847 -11.60132,37.492501 -13.625,43.3125 -26.63519,-25.761649 -60.83865,51.11942 -115.6875,-12.5 0,10e-7 10.48814,-40.415171 17.71875,-63.46875 1.38151,-4.404692 9.66174,-6.314048 20.53125,-6.21875 z m -40.125,79.9375 c 55.49114,60.7197 94.23203,-15.160361 114.5625,11.1875 C 411.00639,135.99208 369.04606,274.44997 313.125,249.71875 266.80109,229.52626 293.62779,126.57117 303.40625,101.9375 Z"
         style="fill:#ffffff"
         id="path2175" />
    </g>
    <text
       xml:space="preserve"
       style="font-style:normal;font-variant:normal;font-weight:normal;font-stretch:normal;font-size:16.93333244px;line-height:1.25;font-family:'Segoe UI';-inkscape-font-specification:'Segoe UI';letter-spacing:0px;word-spacing:0px;fill:#000000;fill-opacity:1;stroke:none;stroke-width:0.26458332"
       x="49.712536"
       y="18.254696"
       id="text5080"><tspan
         sodipodi:role="line"
         id="tspan5078"
         x="49.712536"
         y="33.507469"
         style="font-style:normal;font-variant:normal;font-weight:normal;font-stretch:normal;font-size:16.93333244px;font-family:'Segoe UI';-inkscape-font-specification:'Segoe UI';stroke-width:0.26458332" /></text>
    <g
       style="font-style:normal;font-variant:normal;font-weight:normal;font-stretch:normal;font-size:50.79999924px;line-height:1.25;font-family:Impact;-inkscape-font-specification:Impact;letter-spacing:0px;word-spacing:0px;fill:#ffffff;fill-opacity:1;stroke:none;stroke-width:0.26458332"
       id="text5147" />
    <text
       xml:space="preserve"
       style="font-style:normal;font-variant:normal;font-weight:normal;font-stretch:normal;font-size:50.79999924px;line-height:1.25;font-family:Impact;-inkscape-font-specification:Impact;letter-spacing:0px;word-spacing:0px;fill:#ffffff;fill-opacity:1;stroke:none;stroke-width:0.26458332"
       x="40.480209"
       y="96.374397"
       id="text5152"><tspan
         sodipodi:role="line"
         id="tspan5150"
         x="40.480209"
         y="96.374397"
         style="font-style:normal;font-variant:normal;font-weight:normal;font-stretch:normal;font-family:Guatemala;-inkscape-font-specification:Guatemala;fill:#ffffff;stroke-width:0.26458332">W NE</tspan></text>
    <path
       style="opacity:1;fill:#ffffff;fill-opacity:1;stroke:none;stroke-width:5.36828327;stroke-miterlimit:4;stroke-dasharray:none;stroke-opacity:0.94366198"
       d="m 351.55241,261.27077 -4.56623,-4.36173 2.94503,-10.06553 2.94503,-10.06553 6.79157,-0.39811 c 7.74606,-0.45405 20.03929,3.54652 25.60251,8.3318 3.41959,2.9414 3.4461,3.09912 1.5024,8.93787 -1.80201,5.41313 -2.44801,6.01665 -7.23766,6.7616 -2.89247,0.44987 -7.50439,1.80872 -10.2487,3.01966 -7.75022,3.41981 -12.49788,2.84153 -17.73395,-2.16003 z"
       id="path5156"
       inkscape:connector-curvature="0"
       transform="scale(0.26458333)" />
  </g>
</svg>
